<svg xmlns="http://www.w3.org/2000/svg" width="31.501" height="33.751" viewBox="0 0 31.501 33.751">
  <g id="save" transform="translate(-2.25 -1.125)">
    <path id="Path_116" data-name="Path 116" d="M33.256,8.6,26.273,1.619a1.676,1.676,0,0,0-1.193-.494H3.938A1.689,1.689,0,0,0,2.25,2.813V33.188a1.689,1.689,0,0,0,1.688,1.688H32.063a1.689,1.689,0,0,0,1.688-1.688V9.8A1.676,1.676,0,0,0,33.257,8.6ZM22.5,3.375v6.75H12.375V3.375Zm9,29.25H4.5V3.375h5.625v9H24.75v-9h.1L31.5,10.028Z" fill="#fff"/>
    <path id="Path_117" data-name="Path 117" d="M17.719,15.75a6.469,6.469,0,1,0,6.469,6.469A6.469,6.469,0,0,0,17.719,15.75Zm0,10.688a4.219,4.219,0,1,1,4.219-4.219A4.219,4.219,0,0,1,17.719,26.438Z" fill="#fff"/>
  </g>
</svg>
